<?xml version="1.0" standalone="no"?>
<!DOCTYPE svg PUBLIC "-//W3C//DTD SVG 20010904//EN"
 "http://www.w3.org/TR/2001/REC-SVG-20010904/DTD/svg10.dtd">
<svg version="1.0" xmlns="http://www.w3.org/2000/svg"
 width="1024.000000pt" height="1024.000000pt" viewBox="256 256 512.000000 512.000000"
 preserveAspectRatio="xMidYMid meet">

<g transform="translate(0.000000,1024.000000) scale(0.100000,-0.100000)"
fill="#000000" stroke="none">
<path d="M6315 8068 c-10 -38 -209 -1029 -497 -2470 -150 -753 -277 -1368
-281 -1368 -5 0 -23 11 -40 24 -86 64 -266 133 -409 156 -121 20 -340 8 -462
-24 -283 -74 -533 -272 -659 -523 -15 -28 -39 -91 -53 -140 -23 -76 -27 -106
-27 -218 -1 -117 2 -138 27 -210 67 -194 187 -328 388 -435 l93 -50 -392 0
-393 0 0 440 0 440 70 0 c65 0 71 2 80 24 8 21 50 191 50 202 0 2 -45 4 -100
4 l-100 0 0 425 0 425 270 0 270 0 2 -225 3 -226 113 72 112 71 0 154 0 154
275 0 275 0 0 -90 0 -90 110 0 110 0 0 90 0 90 173 0 174 0 25 108 c14 59 23
110 21 115 -2 4 -92 7 -199 7 l-194 0 0 370 0 370 260 0 260 0 5 23 c3 12 14
60 25 107 11 47 20 88 20 93 0 4 -128 7 -285 7 l-285 0 0 420 0 420 373 2 372
3 22 90 c12 50 25 107 28 128 l7 37 -1756 0 -1756 0 0 -131 0 -130 90 3 90 3
0 -422 0 -423 -90 0 -90 0 0 -115 0 -115 90 0 90 0 0 -370 0 -370 -90 0 -90 0
0 -115 0 -115 90 0 90 0 0 -425 0 -425 -90 0 -90 0 0 -116 0 -115 90 3 90 3 0
-443 0 -444 -90 4 -90 3 0 -122 0 -123 2005 0 2005 0 0 120 0 120 -85 0 -85 0
0 353 1 352 -103 97 c-57 53 -104 95 -106 94 -1 -2 -5 -199 -7 -437 -2 -239
-5 -440 -5 -446 0 -10 -54 -13 -235 -13 l-235 0 0 60 c0 33 -3 60 -6 60 -3 0
-24 -13 -47 -29 -23 -15 -70 -42 -104 -60 -62 -31 -63 -31 -220 -30 -121 0
-152 3 -133 11 112 48 277 136 332 178 93 71 209 198 268 293 101 164 100 161
280 1042 81 396 181 880 230 1115 22 107 86 413 141 680 55 267 108 527 119
577 11 51 20 96 20 99 0 3 17 -9 38 -28 64 -58 155 -115 321 -202 189 -99 235
-130 325 -215 165 -158 240 -340 238 -576 -1 -169 -30 -278 -120 -457 -39 -76
-66 -138 -62 -138 15 0 175 132 258 214 193 188 309 393 357 626 24 116 17
320 -14 440 -45 170 -150 354 -289 501 -42 45 -174 160 -292 254 -228 183
-374 323 -434 418 -20 32 -60 105 -87 162 -62 127 -87 151 -234 221 -145 69
-153 71 -160 42z m-2931 -1275 c-1 -7 -2 -195 -2 -418 l-2 -405 -270 0 -270 0
0 423 0 422 272 -5 c210 -4 273 -8 272 -17z m769 -402 l2 -421 -272 0 -273 0
0 420 0 420 268 2 c147 2 268 3 270 2 1 -1 3 -191 5 -423z m777 -1 l0 -420
-275 0 -275 0 0 418 c0 230 2 421 4 423 2 2 126 3 275 1 l271 -3 0 -419z
m-1550 -1020 l0 -370 -270 0 -270 0 0 370 0 370 270 0 270 0 0 -370z m775 0
l0 -370 -272 0 -273 0 0 370 0 370 273 0 272 0 0 -370z m775 0 l0 -370 -275 0
-275 0 0 370 0 370 275 0 275 0 0 -370z m-1550 -1015 c0 -228 0 -418 0 -422 0
-5 -121 -9 -270 -11 l-270 -2 0 425 0 425 270 0 270 0 0 -415z m0 -920 c0
-143 2 -342 3 -443 l2 -182 -272 0 -273 0 0 443 0 442 270 0 270 0 0 -260z"/>
<path d="M6501 5705 c-79 -174 -142 -317 -140 -319 2 -3 65 42 140 97 75 56
216 160 312 232 97 71 175 130 174 131 -10 6 -338 174 -340 174 -1 0 -67 -142
-146 -315z"/>
<path d="M6755 5252 c-33 -31 -157 -145 -275 -253 -118 -108 -223 -206 -233
-216 -17 -20 -17 -20 5 -16 13 2 196 30 407 63 210 32 386 62 389 65 4 3 -1
20 -10 36 -10 16 -59 108 -110 204 -50 96 -97 175 -102 175 -6 0 -38 -26 -71
-58z"/>
<path d="M6400 4473 c0 -10 0 -10 352 -199 230 -124 292 -154 299 -143 9 14
60 106 145 264 l46 85 -421 0 c-232 0 -421 -3 -421 -7z"/>
<path d="M6150 4213 c1 -16 228 -427 238 -431 5 -1 57 38 113 89 57 51 108 95
112 99 7 6 -438 250 -456 250 -4 0 -7 -3 -7 -7z"/>
</g>
</svg>
